<?xml version="1.0" standalone="no"?><!DOCTYPE svg PUBLIC "-//W3C//DTD SVG 1.1//EN" "http://www.w3.org/Graphics/SVG/1.1/DTD/svg11.dtd"><svg t="1717512071967" class="icon" viewBox="0 0 1024 1024" version="1.1" xmlns="http://www.w3.org/2000/svg" p-id="908" xmlns:xlink="http://www.w3.org/1999/xlink" width="256" height="256"><path d="M872.8 618.8l-1.2-1.2c-44.1-43.4-114.4-45-160.4-3.5-46-41.4-116.3-39.9-160.4 3.5-45 44.4-45.5 117-1.1 162l1.1 1.1 134.4 133.2c14.1 14.4 37.2 14.6 51.6 0.5l0.5-0.5 134.4-133c45-44.5 45.5-117 1.1-162.1zM549.1 736.4c-0.7-1.6-1.4-3.3-2.1-5l2.1 5z" fill="#1677ff" p-id="909"></path><path d="M680.3 90.9H209.2c-55.9 0-101.6 45.7-101.6 101.6v625.2c0 55.9 45.7 101.6 101.6 101.6H627L515 808.4l-1.5-1.5c-61.6-62.4-61-163.4 1.5-225.1 30.5-30 70.8-46.5 113.5-46.5 29.3 0 57.8 7.9 82.6 22.7 21.4-12.8 45.6-20.4 70.7-22.2V192.5c0.1-55.9-45.6-101.6-101.5-101.6zM435.1 624.6c0 21.2-17.3 38.5-38.5 38.5h-96.3c-21.2 0-38.5-17.3-38.5-38.5s17.3-38.5 38.5-38.5h96.3c21.2-0.1 38.5 17.3 38.5 38.5z m115.6-163.8c0 21.2-17.3 38.5-38.5 38.5H300.3c-21.2 0-38.5-17.3-38.5-38.5s17.3-38.5 38.5-38.5h211.9c21.2 0 38.5 17.3 38.5 38.5z m77.1-163.7c0 21.2-17.3 38.5-38.5 38.5h-289c-21.2 0-38.5-17.3-38.5-38.5s17.3-38.5 38.5-38.5h289c21.1-0.1 38.5 17.3 38.5 38.5z" fill="#1677ff" p-id="910"></path></svg>